<svg xmlns="http://www.w3.org/2000/svg" viewBox="0 0 96 96" role="img" aria-label="Solid state physics logo">
  <defs>
    <linearGradient id="g" x1="16" y1="10" x2="80" y2="86" gradientUnits="userSpaceOnUse">
      <stop offset="0" stop-color="#4f46e5"/>
      <stop offset="0.55" stop-color="#0891b2"/>
      <stop offset="1" stop-color="#16a34a"/>
    </linearGradient>
  </defs>
  <rect width="96" height="96" rx="18" fill="#0f172a"/>
  <g fill="none" stroke="url(#g)" stroke-width="4" stroke-linecap="round" stroke-linejoin="round">
    <path d="M24 32 48 18 72 32 48 46 24 32Z"/>
    <path d="M24 32v28l24 14 24-14V32"/>
    <path d="M48 46v28"/>
    <path d="M24 60 48 46 72 60" opacity=".7"/>
    <path d="M36 25v28M60 25v28" opacity=".45"/>
  </g>
  <g fill="#e0f2fe" stroke="#0f172a" stroke-width="2">
    <circle cx="24" cy="32" r="6"/>
    <circle cx="48" cy="18" r="6"/>
    <circle cx="72" cy="32" r="6"/>
    <circle cx="48" cy="46" r="6"/>
    <circle cx="24" cy="60" r="6"/>
    <circle cx="48" cy="74" r="6"/>
    <circle cx="72" cy="60" r="6"/>
  </g>
</svg>
